<?xml version="1.0" encoding="UTF-8"?>
<svg version="1.0" viewBox="0 0 241.6 220.06" xmlns="http://www.w3.org/2000/svg" xmlns:cc="http://creativecommons.org/ns#" xmlns:dc="http://purl.org/dc/elements/1.1/" xmlns:rdf="http://www.w3.org/1999/02/22-rdf-syntax-ns#">
 <g transform="translate(-175.32 -1696.5)">
  <g transform="matrix(.9828 0 0 .9828 -.40786 34.31)" fill="none" stroke="#fffffd" stroke-linecap="round" stroke-linejoin="round" stroke-width="20.35">
   <path d="m273.48 1766.1c-14.051 0.2206-26.909 11.205-28.735 25.198-1.6256 12.438 3.8235 24.726 12.504 33.497 14.354 14.507 31.941 25.979 43.533 43.064 2.2908-2.4444 4.841-6.2927 7.4228-9.1425 13.162-14.531 30.344-25.048 42.186-40.772 8.9601-11.899 9.9654-30.317-0.28453-41.947-9.5205-10.808-27.003-13.132-38.798-4.8304-4.2914 3.0233-7.9686 6.9765-10.398 11.641-5.2447-10.079-15.93-16.804-27.434-16.708z" opacity=".98"/>
   <path d="m399.36 1794.2a99.347 98.04 0 0 1-99.347 98.038 99.347 98.04 0 0 1-99.347-98.038 99.347 98.04 0 0 1 99.347-98.04 99.347 98.04 0 0 1 99.347 98.04z" style="paint-order:stroke fill markers"/>
   <path d="m196.01 1898.2h209.11v8.2778h-209.11z" style="paint-order:stroke fill markers"/>
  </g>
 </g>
</svg>
