<?xml version="1.0" encoding="UTF-8" standalone="no"?>
<svg
   xmlns:svg="http://www.w3.org/2000/svg"
   xmlns="http://www.w3.org/2000/svg"
   id="svg12"
   viewBox="0 0 241.6 241.6"
   version="1.0">
  <defs
     id="defs16" />
  <g
     id="g10"
     transform="translate(-174.11471,-1684.1457)">
    <g
       id="g8"
       stroke-width="20.35"
       stroke-linejoin="round"
       stroke-linecap="round"
       stroke="#f1f1f1"
       fill="none"
       transform="matrix(0.9828,0,0,0.9828,-0.40786,34.31)">
      <path
         id="path2"
         opacity="0.98"
         d="m 273.48,1766.1 c -14.051,0.2206 -26.909,11.205 -28.735,25.198 -1.6256,12.438 3.8235,24.726 12.504,33.497 14.354,14.507 31.941,25.979 43.533,43.064 2.2908,-2.4444 4.841,-6.2927 7.4228,-9.1425 13.162,-14.531 30.344,-25.048 42.186,-40.772 8.9601,-11.899 9.9654,-30.317 -0.28453,-41.947 -9.5205,-10.808 -27.003,-13.132 -38.798,-4.8304 -4.2914,3.0233 -7.9686,6.9765 -10.398,11.641 -5.2447,-10.079 -15.93,-16.804 -27.434,-16.708 z" />
      <path
         id="path4"
         style="paint-order:stroke fill markers"
         d="m 399.36,1794.2 a 99.347,98.04 0 0 1 -99.347,98.038 99.347,98.04 0 0 1 -99.347,-98.038 99.347,98.04 0 0 1 99.347,-98.04 99.347,98.04 0 0 1 99.347,98.04 z" />
      <path
         id="path6"
         style="paint-order:stroke fill markers"
         d="m 196.01,1898.2 h 209.11 v 8.2778 H 196.01 Z" />
    </g>
  </g>
  <path
     id="path845"
     d="m 121.17405,93.173667 c 0,97.263733 0,97.263733 0,97.263733"
     style="fill:none;stroke:#f1f1f1;stroke-width:10.4204;stroke-linecap:butt;stroke-linejoin:miter;stroke-miterlimit:4;stroke-dasharray:none;stroke-opacity:1" />
</svg>

