<?xml version="1.0" standalone="no"?>
<!DOCTYPE svg PUBLIC "-//W3C//DTD SVG 20010904//EN"
 "http://www.w3.org/TR/2001/REC-SVG-20010904/DTD/svg10.dtd">
<svg version="1.0" xmlns="http://www.w3.org/2000/svg"
 width="968.000000pt" height="968.000000pt" viewBox="0 0 968.000000 968.000000"
 preserveAspectRatio="xMidYMid meet">
<metadata>
Created by potrace 1.14, written by Peter Selinger 2001-2017
</metadata>
<g transform="translate(0.000000,968.000000) scale(0.100000,-0.100000)"
fill="#000000" stroke="none">
<path d="M4727 9384 c-1 -1 -63 -5 -137 -8 -74 -4 -148 -8 -165 -10 -16 -2
-60 -6 -96 -10 -36 -4 -76 -9 -90 -11 -13 -2 -69 -11 -124 -21 -109 -18 -128
-21 -165 -29 -14 -3 -36 -7 -50 -10 -83 -16 -286 -71 -292 -80 -4 -5 -8 -7 -8
-3 0 4 -21 0 -47 -8 -27 -8 -55 -16 -63 -18 -35 -9 -306 -109 -315 -117 -5 -5
-14 -9 -21 -9 -12 0 -170 -71 -256 -116 -27 -13 -48 -21 -48 -17 0 5 -4 3 -8
-2 -4 -6 -36 -26 -72 -44 -194 -101 -583 -359 -680 -451 -9 -8 -38 -33 -65
-55 -152 -123 -387 -359 -526 -527 -33 -40 -68 -82 -77 -93 -46 -55 -182 -245
-182 -254 0 -6 -4 -11 -9 -11 -5 0 -13 -9 -16 -20 -3 -11 -12 -26 -19 -32 -19
-20 -91 -142 -88 -150 1 -5 -2 -8 -7 -8 -5 0 -16 -12 -24 -27 -48 -92 -207
-403 -206 -406 1 -3 -18 -52 -39 -100 -21 -47 -46 -109 -48 -117 0 -3 -6 -18
-13 -35 -7 -16 -14 -34 -15 -40 -2 -5 -6 -18 -9 -27 -9 -23 -18 -52 -19 -58 0
-3 -9 -29 -19 -59 -20 -58 -84 -285 -94 -336 -4 -16 -8 -41 -11 -55 -6 -37
-12 -65 -14 -65 -1 0 -3 -9 -5 -20 -2 -11 -6 -33 -9 -50 -12 -67 -17 -102 -21
-140 -3 -22 -7 -56 -11 -75 -4 -19 -8 -53 -9 -75 -2 -22 -7 -67 -11 -100 -10
-81 -11 -608 -1 -720 7 -79 11 -117 33 -265 3 -19 7 -53 10 -75 3 -22 7 -48
10 -57 3 -10 7 -29 10 -43 10 -58 13 -73 28 -136 8 -37 17 -78 20 -90 7 -35
75 -271 85 -294 5 -11 24 -63 41 -115 44 -127 108 -275 191 -445 68 -137 137
-265 148 -275 3 -3 15 -21 25 -40 22 -40 152 -238 190 -290 40 -54 60 -80 76
-98 8 -10 34 -42 57 -72 23 -30 54 -69 70 -87 15 -17 53 -59 83 -94 110 -126
331 -338 446 -427 24 -19 44 -39 44 -43 0 -5 6 -9 14 -9 8 0 16 -4 18 -8 9
-24 319 -239 470 -328 37 -21 68 -41 68 -44 0 -3 -442 -5 -983 -6 -988 -1
-1054 -2 -1063 -16 -3 -4 -14 -8 -25 -8 -19 0 -104 -51 -144 -87 -36 -32 -85
-116 -102 -173 -21 -71 -26 -445 -7 -530 36 -159 185 -292 341 -306 98 -9 343
-9 343 -1 0 5 5 5 11 1 16 -9 149 -11 149 -1 0 5 5 5 11 1 16 -9 149 -11 149
-1 0 5 5 5 11 1 16 -9 149 -11 149 -1 0 5 5 5 11 2 15 -10 389 -11 389 -2 0 5
5 5 11 2 15 -10 389 -11 389 -2 0 5 5 5 11 1 16 -9 149 -11 149 -1 0 5 5 5 11
1 16 -9 149 -11 149 -1 0 5 5 5 11 1 16 -9 149 -11 149 -1 0 5 5 5 11 2 15
-10 389 -11 389 -2 0 5 5 5 11 2 15 -10 389 -11 389 -2 0 5 5 5 11 1 16 -9
149 -11 149 -1 0 5 5 5 11 1 16 -9 149 -11 149 -1 0 5 5 5 11 1 16 -9 149 -11
149 -1 0 5 5 5 11 2 15 -10 389 -11 389 -2 0 5 5 5 11 2 15 -10 389 -11 389
-2 0 5 5 5 11 1 16 -9 149 -11 149 -1 0 5 5 5 11 1 16 -9 149 -11 149 -1 0 5
5 5 11 1 16 -9 149 -11 149 -1 0 5 5 5 11 2 15 -10 389 -11 389 -2 0 5 5 5 11
2 15 -10 389 -11 389 -2 0 5 5 5 11 1 16 -9 149 -11 149 -1 0 5 5 5 11 1 16
-9 149 -11 149 -1 0 5 5 5 11 1 16 -9 149 -11 149 -1 0 5 5 5 11 2 15 -10 389
-11 389 -2 0 5 5 5 11 2 15 -10 389 -11 389 -2 0 5 5 5 11 1 16 -9 149 -11
149 -1 0 5 5 5 11 1 16 -9 149 -11 149 -1 0 5 5 5 11 1 16 -9 149 -11 149 -1
0 5 5 5 11 2 15 -10 389 -11 389 -2 0 5 5 5 11 2 15 -10 389 -11 389 -2 0 5 5
5 11 1 16 -9 149 -11 149 -1 0 5 5 5 12 1 17 -10 131 -7 181 6 65 16 128 51
174 96 23 23 45 39 48 36 3 -3 5 0 5 7 0 7 9 26 20 41 51 71 61 135 61 375 0
210 -8 270 -46 345 -41 82 -155 179 -230 197 -5 1 -26 6 -45 11 -19 5 -488 8
-1042 8 -555 -1 -1008 2 -1008 6 0 4 13 14 30 23 49 26 265 167 268 176 2 5 8
9 13 9 8 0 160 109 223 160 168 136 407 361 522 491 42 48 100 116 134 158 19
24 40 48 45 55 39 44 195 264 195 275 0 5 4 11 8 13 5 2 26 31 48 66 42 67 41
66 93 157 19 33 39 63 45 67 6 4 7 8 3 8 -5 0 0 15 11 33 37 62 162 318 162
332 0 2 11 29 25 59 14 30 25 61 25 68 0 8 4 18 8 24 7 8 61 148 69 179 1 6
19 64 38 130 20 66 38 127 40 135 2 8 11 44 20 79 9 35 18 76 21 90 2 14 11
58 19 96 15 71 22 112 29 175 3 19 6 35 7 35 1 0 3 16 5 35 2 19 6 53 9 75 35
245 35 717 0 980 -11 81 -13 98 -20 140 -3 22 -8 54 -10 70 -3 17 -7 41 -10
55 -9 41 -15 73 -20 105 -3 17 -21 91 -40 165 -45 172 -40 154 -66 235 -12 39
-24 76 -25 83 -1 8 -6 21 -10 30 -4 9 -8 22 -10 27 -1 6 -8 24 -15 40 -7 17
-13 32 -14 35 -5 21 -21 62 -37 100 -11 25 -24 54 -28 65 -60 150 -229 477
-301 581 -16 24 -29 47 -29 53 0 6 -4 11 -9 11 -5 0 -13 9 -16 20 -3 11 -12
26 -18 32 -7 7 -25 33 -41 57 -16 25 -33 50 -38 55 -4 6 -32 43 -60 81 -28 39
-63 84 -77 101 -14 17 -41 50 -60 73 -18 23 -52 63 -74 89 -58 67 -363 369
-421 417 -27 22 -57 47 -67 55 -9 8 -32 26 -50 40 -17 14 -40 33 -50 43 -11 9
-23 17 -28 17 -5 0 -11 4 -13 8 -7 16 -310 224 -403 276 -16 9 -57 32 -90 51
-129 74 -435 219 -505 240 -14 4 -27 11 -30 14 -3 4 -27 15 -55 24 -27 9 -116
39 -197 66 -81 27 -163 52 -184 55 -21 4 -42 10 -48 15 -6 4 -18 8 -26 8 -8 0
-42 7 -75 16 -33 9 -73 18 -89 21 -37 7 -134 26 -166 33 -14 4 -34 7 -45 8
-11 1 -36 5 -55 8 -19 4 -57 9 -84 13 -26 3 -65 7 -85 10 -136 16 -572 37
-584 28z m268 -809 c147 -7 219 -13 330 -30 22 -3 56 -8 75 -10 19 -2 44 -6
55 -9 11 -3 65 -14 120 -25 55 -12 141 -33 190 -47 50 -14 95 -27 102 -28 7
-1 16 -5 19 -9 4 -4 18 -7 30 -7 13 0 26 -4 29 -10 3 -5 13 -10 22 -10 27 0
262 -96 423 -173 92 -44 287 -153 325 -183 17 -13 37 -24 43 -24 6 0 12 -3 14
-7 2 -5 39 -33 83 -62 249 -170 479 -385 728 -680 15 -18 27 -37 27 -41 0 -5
4 -10 8 -12 4 -1 33 -39 65 -83 31 -44 60 -84 65 -90 18 -24 108 -173 160
-267 63 -114 135 -266 176 -373 15 -38 31 -79 36 -90 10 -22 52 -148 59 -177
1 -4 7 -22 12 -40 22 -71 47 -168 42 -168 -2 0 -1 -6 4 -12 4 -7 8 -17 9 -23
2 -10 8 -37 18 -81 2 -12 7 -37 10 -55 3 -19 8 -45 10 -59 8 -45 26 -174 33
-245 10 -86 9 -591 0 -660 -4 -27 -10 -72 -13 -99 -3 -27 -8 -58 -10 -70 -2
-12 -6 -37 -9 -57 -6 -45 -61 -304 -65 -304 -1 0 -3 -10 -6 -23 -12 -67 -108
-341 -161 -462 -38 -86 -157 -323 -179 -355 -13 -19 -21 -35 -18 -35 2 0 0 -6
-6 -12 -6 -7 -33 -49 -60 -93 -28 -43 -59 -89 -70 -102 -11 -13 -20 -26 -20
-30 0 -3 -16 -26 -36 -49 -19 -24 -32 -44 -28 -44 4 0 1 -6 -7 -12 -9 -7 -43
-47 -77 -89 -125 -156 -334 -366 -480 -484 -7 -5 -18 -15 -25 -20 -77 -64
-379 -275 -393 -275 -2 0 -32 -17 -66 -38 -118 -71 -505 -252 -540 -252 -4 0
-19 -5 -35 -12 -15 -6 -30 -12 -33 -13 -3 -1 -12 -4 -20 -8 -42 -16 -261 -78
-295 -83 -11 -1 -35 -7 -52 -13 -18 -5 -33 -7 -33 -5 0 3 -6 2 -12 -2 -7 -5
-19 -9 -28 -10 -8 0 -53 -8 -100 -17 -47 -9 -107 -19 -135 -22 -27 -4 -61 -8
-74 -10 -117 -19 -538 -26 -696 -12 -159 15 -270 30 -382 52 -13 3 -34 7 -48
10 -14 3 -37 7 -52 11 -16 3 -71 16 -123 30 -52 14 -108 29 -125 34 -51 13
-248 82 -277 97 -15 7 -31 14 -35 14 -11 2 -40 13 -98 40 -27 12 -52 23 -55
24 -6 1 -209 104 -260 131 -19 11 -37 22 -38 27 -2 4 -8 7 -14 7 -6 0 -30 14
-55 30 -24 17 -46 30 -48 30 -11 0 -258 176 -302 215 -6 5 -26 21 -44 35 -93
71 -378 350 -449 439 -19 24 -42 51 -50 60 -8 9 -26 32 -40 51 -13 19 -27 37
-30 40 -10 9 -105 144 -125 178 -11 17 -23 32 -27 32 -4 0 -8 4 -8 10 0 5 -15
33 -34 62 -77 122 -228 422 -261 518 -5 13 -18 48 -27 70 -10 25 -68 196 -72
215 -2 6 -8 30 -15 55 -7 25 -15 52 -17 60 -2 8 -12 51 -23 95 -25 103 -48
227 -56 301 -4 32 -8 61 -10 64 -18 29 -27 558 -12 720 7 73 27 213 43 300 2
14 6 39 9 55 15 84 89 361 99 367 6 4 8 8 4 8 -4 0 6 37 23 83 16 45 31 87 33
92 1 6 9 26 18 46 9 20 19 47 23 60 4 13 23 54 41 92 18 37 30 67 27 67 -3 0
0 6 6 13 6 8 28 47 49 88 66 128 189 331 204 337 5 2 8 9 8 15 0 11 25 46 64
90 9 9 16 19 16 23 0 5 94 125 145 183 111 128 225 244 339 344 32 29 63 57
70 62 9 9 50 41 141 113 6 4 26 19 45 32 19 14 37 28 40 31 3 3 20 14 38 24
17 11 32 23 32 27 0 4 5 8 11 8 6 0 30 14 54 30 24 17 46 30 50 30 3 0 15 9
27 20 12 10 25 17 30 14 4 -3 8 -1 8 4 0 5 8 12 18 15 9 4 37 18 62 33 63 37
197 104 209 104 6 0 11 5 11 10 0 6 5 10 12 10 10 0 97 35 213 85 25 11 64 25
85 30 3 1 14 5 25 9 76 29 95 35 95 30 0 -4 7 0 17 7 9 8 18 13 19 12 2 -1 9
-1 16 1 46 14 305 76 338 81 28 5 62 11 135 25 28 6 75 13 105 15 30 3 71 7
90 10 19 2 88 6 154 9 65 3 120 6 122 8 3 4 50 3 249 -7z"/>
<path d="M3630 6620 c-25 -4 -63 -10 -85 -14 -53 -7 -130 -23 -130 -26 0 -1
-11 -3 -25 -6 -14 -2 -32 -7 -40 -11 -8 -3 -17 -7 -20 -8 -31 -8 -99 -34 -160
-62 -41 -19 -84 -39 -95 -44 -11 -5 -33 -18 -50 -29 -16 -10 -45 -27 -62 -36
-18 -9 -33 -20 -33 -25 0 -5 -5 -9 -11 -9 -6 0 -30 -15 -53 -32 -22 -18 -50
-40 -61 -48 -30 -22 -255 -251 -255 -259 0 -3 -20 -33 -44 -66 -25 -32 -42
-63 -40 -67 3 -4 2 -8 -3 -8 -9 0 -47 -62 -45 -72 1 -5 -3 -8 -8 -8 -6 0 -10
-4 -10 -9 0 -5 -15 -42 -33 -83 -46 -101 -58 -131 -60 -156 -1 -12 -4 -22 -7
-22 -4 0 -7 -6 -8 -12 0 -7 -6 -33 -12 -58 -18 -70 -21 -83 -25 -120 -6 -50
-10 -69 -17 -75 -3 -4 -2 -19 2 -35 4 -16 5 -31 2 -35 -10 -10 -10 -208 0
-227 5 -10 4 -19 -2 -23 -6 -4 -8 -11 -4 -16 3 -6 8 -27 9 -47 2 -20 6 -55 9
-77 3 -22 8 -57 11 -79 3 -21 8 -42 11 -47 3 -5 7 -17 9 -26 10 -52 37 -146
61 -208 14 -39 26 -76 27 -82 0 -7 4 -13 9 -13 4 0 8 -6 8 -13 0 -8 11 -36 25
-63 14 -27 25 -55 25 -61 0 -7 5 -13 11 -13 5 0 7 -4 4 -10 -3 -5 -1 -10 4
-10 6 0 11 -4 11 -10 0 -13 101 -184 112 -188 4 -2 8 -9 8 -16 0 -7 9 -21 20
-31 11 -10 20 -24 20 -31 0 -7 4 -14 8 -16 4 -1 23 -23 42 -48 19 -25 47 -58
62 -75 111 -123 132 -144 140 -139 5 3 7 1 6 -4 -4 -15 257 -263 435 -413 16
-13 45 -40 67 -59 21 -19 57 -52 81 -72 24 -20 53 -45 64 -55 11 -10 49 -43
84 -73 35 -30 74 -64 86 -75 11 -11 49 -45 84 -75 34 -30 82 -74 106 -98 24
-23 49 -42 55 -42 5 0 10 -7 10 -15 0 -9 7 -18 15 -21 20 -8 232 -225 325
-334 25 -29 50 -58 56 -64 6 -6 50 -65 99 -131 48 -66 105 -137 127 -158 37
-35 138 -95 138 -81 0 4 6 1 14 -5 20 -17 145 -24 202 -11 52 12 143 54 159
73 6 7 23 22 39 35 16 12 26 22 23 22 -4 0 6 13 21 29 48 51 82 93 82 102 0 5
5 9 11 9 5 0 7 5 4 10 -3 6 1 10 9 10 9 0 16 5 16 11 0 7 20 36 45 65 25 28
45 55 45 58 0 6 66 76 179 191 94 95 261 250 381 355 77 66 291 250 315 271
54 46 134 117 166 149 20 19 38 36 42 38 28 13 481 461 474 469 -3 2 12 21 32
41 38 40 79 90 130 157 17 22 35 45 41 52 5 7 10 16 10 22 0 5 4 11 8 13 5 2
27 35 50 73 23 39 46 75 52 82 5 7 10 16 10 20 0 4 15 40 34 78 32 68 51 122
48 138 -1 4 2 7 7 7 6 0 35 81 46 130 0 3 4 14 8 25 3 11 8 31 11 45 3 14 10
50 16 80 38 193 43 479 9 627 -5 24 -7 49 -4 54 4 5 2 9 -2 9 -5 0 -9 8 -10
18 -1 18 -10 57 -13 57 -1 0 -3 8 -5 18 -2 10 -14 51 -26 90 -12 40 -23 74
-23 77 -1 3 -24 53 -53 111 -59 121 -112 209 -125 209 -5 0 -7 4 -4 9 3 5 -4
19 -17 33 -12 13 -35 42 -52 64 -68 90 -292 286 -365 318 -14 6 -27 14 -30 17
-21 29 -329 159 -363 154 -9 -2 -15 0 -12 5 4 7 -96 31 -145 35 -9 0 -20 4
-26 7 -6 4 -34 8 -63 9 -28 2 -54 5 -56 8 -4 7 -272 4 -330 -3 -96 -12 -111
-15 -182 -31 -13 -3 -31 -7 -41 -9 -39 -9 -179 -58 -231 -82 -132 -60 -264
-141 -254 -156 3 -6 2 -8 -4 -5 -11 7 -93 -49 -93 -64 0 -5 -5 -9 -12 -9 -7 0
-25 -12 -40 -27 -15 -15 -28 -21 -28 -15 0 7 -6 12 -14 12 -8 0 -16 4 -18 10
-4 13 -157 128 -190 143 -16 6 -28 15 -28 18 0 4 -18 14 -39 22 -22 9 -42 21
-46 27 -3 5 -15 10 -26 10 -10 0 -19 4 -19 8 0 4 -21 16 -47 26 -127 49 -173
64 -173 59 0 -3 -6 -1 -12 5 -13 10 -86 28 -100 24 -5 -1 -8 3 -8 9 0 5 -5 7
-10 4 -6 -4 -18 -1 -27 7 -14 11 -16 11 -8 -1 6 -11 5 -12 -6 -5 -8 4 -21 10
-29 11 -74 12 -113 15 -235 17 -77 2 -160 0 -185 -4z m265 -802 c33 -5 69 -11
80 -13 11 -1 38 -10 59 -19 21 -10 47 -18 57 -19 11 -1 19 -4 19 -7 0 -3 25
-19 56 -34 63 -32 152 -100 202 -155 48 -52 132 -172 132 -188 0 -7 4 -13 9
-13 5 0 12 -8 16 -19 6 -20 57 -75 96 -104 l25 -19 0 -1068 c0 -743 -3 -1067
-11 -1062 -5 3 -41 36 -80 73 -130 124 -145 139 -149 139 -3 0 -22 18 -44 40
-21 22 -42 37 -45 33 -4 -3 -7 1 -7 10 0 10 -4 17 -10 17 -5 0 -22 14 -37 30
-14 17 -30 30 -34 30 -4 0 -22 15 -41 33 -40 38 -77 71 -223 197 -60 52 -128
111 -150 131 -22 20 -52 47 -67 60 -206 184 -438 415 -438 439 0 4 -4 10 -8
12 -15 5 -107 150 -143 223 -18 39 -38 73 -44 77 -5 4 -7 8 -3 8 4 0 -2 24
-13 53 -11 28 -20 52 -19 52 3 0 -19 82 -28 105 -3 8 -4 21 -3 29 1 7 -1 20
-5 30 -10 23 -11 197 -2 261 5 30 18 87 30 125 12 39 21 73 20 78 -1 4 1 7 6
7 4 0 16 17 27 38 99 192 340 359 560 389 22 3 41 6 42 7 8 7 117 3 168 -6z
m2131 -2 c27 -4 67 -12 89 -18 22 -6 45 -11 50 -13 51 -11 200 -90 233 -122 7
-7 18 -13 23 -13 6 0 7 -4 4 -10 -3 -5 -1 -10 4 -10 10 0 41 -29 89 -85 13
-15 40 -57 60 -93 20 -37 38 -69 41 -72 3 -3 7 -16 9 -30 1 -13 7 -27 13 -31
6 -3 10 -8 8 -10 -5 -8 13 -99 19 -99 8 0 10 -33 10 -172 0 -141 -2 -196 -9
-192 -4 2 -10 -17 -14 -41 -3 -25 -13 -62 -21 -81 -8 -19 -12 -39 -9 -44 4 -6
2 -10 -3 -10 -8 0 -17 -19 -26 -50 -6 -26 -77 -150 -98 -174 -16 -17 -28 -34
-28 -38 0 -5 -8 -16 -17 -27 -41 -43 -82 -91 -78 -91 2 0 -16 -21 -41 -47 -24
-27 -44 -52 -44 -56 0 -5 -4 -5 -10 -2 -5 3 -10 2 -10 -4 0 -20 -343 -350
-485 -466 -21 -16 -49 -41 -64 -55 -14 -14 -53 -47 -86 -75 -32 -27 -75 -64
-94 -81 -77 -66 -97 -83 -121 -104 -79 -67 -192 -170 -275 -249 -33 -32 -65
-60 -70 -63 -7 -5 -11 334 -10 1068 0 591 3 1074 6 1074 28 0 159 162 162 200
1 11 7 20 14 20 7 0 13 4 13 9 0 12 87 119 120 148 14 12 45 39 70 58 25 20
52 42 61 49 24 20 186 87 222 92 110 17 138 20 188 18 31 -1 78 -5 105 -8z"/>
</g>
</svg>
